<?xml version="1.0" encoding="utf-8"?>
<!-- Generator: Adobe Illustrator 27.0.0, SVG Export Plug-In . SVG Version: 6.00 Build 0)  -->
<svg version="1.1" id="圖層_1" xmlns="http://www.w3.org/2000/svg" xmlns:xlink="http://www.w3.org/1999/xlink" x="0px" y="0px"
	 viewBox="0 0 173.74 171.15" style="enable-background:new 0 0 173.74 171.15;" xml:space="preserve">
<g>
	<path d="M89.98,19.75c14.86,0,29.74,0.36,44.59-0.1c16.36-0.5,28.94,11.97,28.63,28.38c-0.53,28.57-0.12,57.16-0.16,85.74
		c-0.01,10.08-3.29,18.59-12.25,24.16c-4.19,2.61-8.73,3.93-13.7,3.93c-31.34-0.02-62.68,0.01-94.03-0.02
		c-14.34-0.01-25.92-11.4-25.96-25.77c-0.1-30.19-0.09-60.39,0-90.58c0.04-14.05,10.76-25.29,24.83-25.6
		c16.01-0.35,32.03-0.08,48.05-0.08C89.98,19.79,89.98,19.77,89.98,19.75z M124.48,84.4c0-9.13,0.08-16.39-0.04-23.64
		c-0.05-3.28,1.49-7.6-0.76-9.57c-2.17-1.9-6.4-0.29-9.71-0.58c-2.39-0.2-2.91,0.85-2.84,3.01c0.14,4.26-0.22,8.54,0.12,12.78
		c0.27,3.33-0.69,4.29-4.05,4.29c-16.38,0-26.64,10.66-27.55,24.05c-0.73,10.73,4.01,20.08,13.15,23.91
		c10.15,4.25,20.25,2.66,30.26-0.75c1.58-0.54,1.94-1.67,1.81-3.25C124.02,103.95,124.75,93.23,124.48,84.4z M56.53,88.16
		c0,7.26-0.08,14.53,0.04,21.79c0.05,3.29-1.5,7.57,0.71,9.6c2.16,1.99,6.39,0.41,9.7,0.6c0.23,0.01,0.46-0.02,0.69,0
		c1.97,0.2,2.62-0.75,2.62-2.64c-0.05-19.71-0.06-39.43-0.04-59.14c0-1.76-0.56-2.49-2.4-2.41c-2.76,0.12-5.54,0.19-8.29,0
		c-2.5-0.18-3.1,0.81-3.08,3.16C56.59,68.79,56.53,78.47,56.53,88.16z"/>
	<path d="M111.18,95.72c0,3.57-0.16,7.15,0.06,10.71c0.15,2.36-1,2.96-2.94,3.21c-8.1,1.04-13.82-4.03-14.62-12.3
		c-1.02-10.52,6.86-15.98,14.97-15.3c1.84,0.15,2.66,0.6,2.57,2.62c-0.15,3.68-0.04,7.37-0.04,11.06
		C111.17,95.72,111.18,95.72,111.18,95.72z"/>
</g>
</svg>
