<?xml version="1.0" encoding="utf-8"?>
<!-- Generator: Adobe Illustrator 27.0.0, SVG Export Plug-In . SVG Version: 6.00 Build 0)  -->
<svg version="1.1" id="圖層_1" xmlns="http://www.w3.org/2000/svg" xmlns:xlink="http://www.w3.org/1999/xlink" x="0px" y="0px"
	 viewBox="0 0 173.74 171.15" style="enable-background:new 0 0 173.74 171.15;" xml:space="preserve">
<g>
	<path d="M86.87,162.44c-15.96,0-31.91-0.02-47.87,0.01c-3.79,0.01-7.46-0.59-10.95-2.06c-3.73-1.57-6.96-3.87-9.64-6.92
		c-3.49-3.96-5.63-8.55-6.39-13.76c-0.19-1.3-0.29-2.62-0.29-3.94c-0.02-31.07-0.02-62.14,0-93.2c0-4.76,1.21-9.23,3.64-13.35
		c3.04-5.17,7.35-8.9,12.88-11.2c3.28-1.37,6.71-2,10.26-2c32.32,0,64.64-0.03,96.96,0.02c7.83,0.01,14.44,3.04,19.71,8.85
		c3.5,3.85,5.64,8.4,6.44,13.55c0.24,1.54,0.39,3.12,0.39,4.68c0.02,30.83,0.03,61.67,0.01,92.5c0,4.44-1,8.69-3.1,12.61
		c-3.41,6.34-8.57,10.67-15.4,12.95c-2.61,0.87-5.31,1.26-8.07,1.26C119.25,162.44,103.06,162.44,86.87,162.44z M60.25,53.71
		c-2.62,0-5.25,0.01-7.87,0c-0.52,0-0.82,0.17-0.81,0.73c0,0.19,0,0.38-0.02,0.57c-0.16,1.27-0.12,2.6-0.51,3.79
		c-1.58,4.83-3.28,9.61-4.95,14.41c-2.88,8.25-5.76,16.5-8.64,24.76c-2.32,6.64-4.63,13.28-6.94,19.92
		c-0.37,1.06-0.13,1.38,0.99,1.38c3.63,0,7.27,0,10.9,0c1.19,0,1.38-0.15,1.74-1.27c1.49-4.63,2.99-9.26,4.47-13.89
		c0.12-0.39,0.3-0.5,0.68-0.5c7.43,0.01,14.86,0.02,22.29,0.01c0.38,0,0.55,0.12,0.67,0.46c0.38,1.14,0.78,2.27,1.16,3.41
		c1.24,3.63,2.47,7.26,3.71,10.89c0.27,0.79,0.46,0.93,1.26,0.93c4.23,0.01,8.46,0.01,12.7,0c0.81,0,1.01-0.28,0.78-1.05
		c-0.04-0.13-0.09-0.26-0.13-0.39c-1.96-5.49-3.93-10.98-5.89-16.48c-1.87-5.26-3.73-10.52-5.6-15.78
		c-2.31-6.48-4.63-12.96-6.94-19.44c-1.38-3.87-2.76-7.74-4.11-11.62c-0.22-0.64-0.59-0.87-1.25-0.86
		C65.38,53.73,62.81,53.71,60.25,53.71z M109.04,97.85c1.19,0,2.14,0,3.08,0c5.93,0.01,11.86-0.1,17.79,0.07c3.01,0.09,6,0.14,9-0.1
		c0.91-0.07,1.21-0.33,1.28-1.22c0.1-1.35,0.22-2.71,0.3-4.06c0.29-4.74-0.48-9.27-2.69-13.52c-2.38-4.59-6.01-7.68-10.93-9.25
		c-4.4-1.41-8.88-1.39-13.36-0.61c-5.24,0.91-9.31,3.81-12.58,7.89c-3.35,4.18-5.04,9.05-5.65,14.31
		c-0.48,4.16-0.16,8.29,0.97,12.34c1.04,3.75,2.84,7.08,5.54,9.89c3.46,3.6,7.74,5.63,12.63,6.43c3.58,0.59,7.19,0.63,10.8,0.32
		c3.47-0.3,6.88-0.91,10.12-2.29c0.68-0.29,0.95-0.71,0.95-1.42c-0.01-3.15,0-6.3-0.01-9.44c0-0.21-0.08-0.43-0.12-0.65
		c-0.72,0.25-1.34,0.53-2,0.67c-1.99,0.43-3.97,0.89-5.98,1.2c-3.47,0.53-6.94,0.58-10.37-0.42c-3.52-1.03-6.29-2.92-7.66-6.46
		C109.7,100.39,109.43,99.18,109.04,97.85z"/>
	<path d="M60.21,65.14c2.68,8.65,5.36,17.29,8.06,26.01c-5.26,0-10.52,0-15.76,0C55.05,82.46,58.05,73.91,60.21,65.14z"/>
	<path d="M109.11,88.74c0.26-1.02,0.43-1.99,0.76-2.91c1.27-3.56,3.7-5.81,7.53-6.31c4.9-0.64,8.7,2,9.82,6.31
		c0.17,0.65,0.19,1.34,0.19,2.02c0,0.19-0.24,0.51-0.43,0.56c-0.55,0.17-1.13,0.33-1.69,0.33c-5.25,0.03-10.49,0.02-15.74,0.02
		C109.47,88.76,109.39,88.75,109.11,88.74z"/>
</g>
</svg>
