<?xml version="1.0" encoding="utf-8"?>
<!-- Generator: Adobe Illustrator 27.0.0, SVG Export Plug-In . SVG Version: 6.00 Build 0)  -->
<svg version="1.1" id="圖層_1" xmlns="http://www.w3.org/2000/svg" xmlns:xlink="http://www.w3.org/1999/xlink" x="0px" y="0px"
	 viewBox="0 0 173.74 171.15" style="enable-background:new 0 0 173.74 171.15;" xml:space="preserve">
<g>
	<path d="M88.08,14.29c14.24,0,28.48-0.06,42.71,0.01c16.64,0.08,30.27,13.73,30.3,30.35c0.04,27.19,0.04,54.39,0.01,81.58
		c-0.02,16.66-13.24,30.38-29.9,30.5c-28.75,0.2-57.49,0.17-86.24,0.01c-14.38-0.08-26.65-10.51-29.44-24.55
		c-0.43-2.18-0.53-4.45-0.54-6.67c-0.04-26.72-0.05-53.44-0.01-80.16C15,29.2,26.27,16.46,42.32,14.39c1.2-0.16,2.44-0.1,3.66-0.1
		C60.02,14.28,74.05,14.28,88.08,14.29C88.08,14.29,88.08,14.29,88.08,14.29z M45.59,51.01c-0.06,1.15-0.14,2.07-0.14,3
		c-0.01,19.4-0.01,38.79-0.01,58.19c0,0.41-0.15,0.92,0.05,1.2c0.38,0.55,0.93,1.36,1.43,1.38c3.32,0.12,6.64,0.03,9.96,0.07
		c1.23,0.02,1.66-0.45,1.64-1.68c-0.06-3.73-0.02-7.46-0.02-11.19c0-2.42,0-4.83,0-7.46c1.27,0,2.27,0.04,3.27-0.01
		c3.38-0.14,6.8-0.06,10.14-0.51c18.6-2.49,22.47-19.23,17.31-30.89c-3.56-8.04-10.69-11.44-18.94-11.98
		C62.19,50.6,54.04,51.01,45.59,51.01z M97.7,101.24c0,3.92-0.05,7.49,0.06,11.05c0.01,0.48,0.7,1.17,1.22,1.36
		c1.9,0.69,3.83,1.4,5.81,1.74c6.9,1.18,13.77,1.46,20.29-1.78c7.93-3.94,10.59-14.71,4.88-21c-2.2-2.42-5.34-4.08-8.26-5.72
		c-2.88-1.61-6.06-2.68-9.04-4.11c-1.39-0.67-2.41-1.77-2.08-3.57c0.3-1.65,1.57-2.33,2.93-2.34c3.29-0.02,6.61,0.03,9.85,0.47
		c2.22,0.3,4.35,1.31,6.83,2.09c0-1.95,0-3.69,0-5.43c0.01-6.74,0.02-6.84-6.71-7.81c-5.69-0.82-11.38-0.89-16.8,1.49
		c-5.19,2.28-8.36,6.25-8.9,11.93c-0.53,5.58,1.81,9.97,6.62,12.78c3.2,1.87,6.65,3.29,10,4.92c1.09,0.53,2.24,0.99,3.27,1.62
		c1.33,0.81,2.37,1.89,1.96,3.65c-0.39,1.67-1.78,2.09-3.2,2.41c-0.53,0.12-1.07,0.16-1.61,0.18c-5.16,0.19-10.12-0.62-14.78-2.97
		C99.39,101.88,98.71,101.65,97.7,101.24z"/>
	<path d="M58.59,83.12c0-6.97,0-13.59,0-20.42c4.93-0.51,9.78-0.87,14.35,1.3c3.6,1.7,5.15,4.83,5.13,8.75
		c-0.03,4.01-1.72,7.05-5.44,8.75C68.17,83.52,63.46,83.35,58.59,83.12z"/>
</g>
</svg>
