<?xml version="1.0" encoding="utf-8"?>
<!-- Generator: Adobe Illustrator 27.0.0, SVG Export Plug-In . SVG Version: 6.00 Build 0)  -->
<svg version="1.1" id="圖層_1" xmlns="http://www.w3.org/2000/svg" xmlns:xlink="http://www.w3.org/1999/xlink" x="0px" y="0px"
	 viewBox="0 0 173.74 171.15" style="enable-background:new 0 0 173.74 171.15;" xml:space="preserve">
<g>
	<path d="M86.87,158.47c-15.88,0-31.76,0.02-47.63-0.01c-15.2-0.03-25.45-10.33-25.45-25.55c0-30.43-0.01-60.85,0.01-91.28
		c0.01-15.22,10.29-25.5,25.5-25.5c31.84-0.01,63.68-0.02,95.51-0.01c14.54,0,25.07,10.4,25.1,24.94
		c0.06,30.76,0.06,61.52,0.01,92.27c-0.03,14.74-10.39,25.06-25.16,25.12C118.8,158.52,102.84,158.47,86.87,158.47z M73.38,101.32
		c3.16,0,6.32,0.08,9.47-0.03c1.58-0.06,2.36,0.45,2.85,2c1.17,3.71,2.65,7.33,3.8,11.05c0.48,1.55,1.18,2.12,2.79,2.07
		c3.24-0.11,6.49-0.17,9.72,0.02c2.27,0.13,2.24-0.73,1.62-2.42c-2-5.45-3.94-10.92-5.87-16.4c-5.09-14.47-10.18-28.95-15.21-43.44
		c-0.55-1.59-1.35-2.16-3.05-2.1c-3.9,0.13-7.81,0.15-11.71-0.01c-1.8-0.07-2.47,0.67-2.97,2.21c-1.47,4.58-3.05,9.13-4.61,13.68
		c-5.3,15.54-10.6,31.09-15.96,46.62c-0.52,1.49-0.25,1.87,1.28,1.83c3.07-0.08,6.15-0.13,9.22,0.02c1.66,0.08,2.35-0.62,2.82-2.07
		c1.17-3.63,2.58-7.19,3.65-10.84c0.53-1.81,1.46-2.28,3.2-2.21C67.4,101.41,70.39,101.32,73.38,101.32z M124.69,92.07
		c0,0-0.01,0-0.01,0c0-7.47-0.05-14.95,0.04-22.42c0.02-1.62-0.43-2.21-2.08-2.16c-3.23,0.1-6.48,0.11-9.71,0.01
		c-1.6-0.05-1.95,0.61-1.94,2.04c0.03,14.94,0.04,29.89,0,44.83c0,1.47,0.42,2.07,1.98,2.03c3.15-0.1,6.32-0.15,9.46,0.02
		c1.96,0.1,2.33-0.64,2.31-2.43C124.63,106.68,124.69,99.37,124.69,92.07z M118.18,46.84c-4.35-0.17-8.1,3.22-8.36,7.55
		c-0.26,4.26,3.43,8.21,7.84,8.39c4.25,0.17,7.98-3.36,8.16-7.73C126,50.71,122.55,47.01,118.18,46.84z"/>
	<path d="M73.5,64.97c2.43,7.65,4.79,15.12,7.16,22.59c0.37,1.16,0.1,1.63-1.26,1.61c-3.98-0.08-7.97-0.04-11.95,0
		c-1.18,0.01-1.68-0.24-1.27-1.57c2.27-7.28,4.48-14.58,6.73-21.86C72.97,65.52,73.19,65.36,73.5,64.97z"/>
</g>
</svg>
