<?xml version="1.0" encoding="utf-8"?>
<!-- Generator: Adobe Illustrator 27.0.0, SVG Export Plug-In . SVG Version: 6.00 Build 0)  -->
<svg version="1.1" id="圖層_1" xmlns="http://www.w3.org/2000/svg" xmlns:xlink="http://www.w3.org/1999/xlink" x="0px" y="0px"
	 viewBox="0 0 173.74 171.15" style="enable-background:new 0 0 173.74 171.15;" xml:space="preserve">
<path d="M17.08,141.8c-1.94-3.99-2.64-8.25-2.64-12.64c0-28.89-0.09-57.77,0.03-86.66c0.07-16.45,12.89-29.16,29.38-29.21
	c28.69-0.1,57.38-0.1,86.07,0c16.47,0.06,29.26,12.81,29.32,29.27c0.12,28.79,0.04,57.58,0.03,86.37c0,7.12-2.41,13.39-6.91,18.88
	c-6.05,6.15-13.14,10.07-21.98,10.08c-29.05,0.02-58.11,0.11-87.16-0.05c-10.56-0.06-18.66-5.01-24.37-13.88
	C18.37,143.19,18.24,142.05,17.08,141.8z M136.32,128.28c-0.28-2.4-1.86-4.02-3.43-5.64c-5.51-5.7-9.26-12.51-11.87-19.87
	c-4.88-13.8-8.01-28.16-13.02-41.93c-2.21-6.08-4.79-12.03-9.79-16.48c-7.37-6.57-18.14-5.81-24.62,1.66
	c-2.92,3.37-5.06,7.18-6.75,11.28c-4.47,10.88-7.02,22.37-10.46,33.57c-3.77,12.27-7.93,24.34-17.44,33.65
	c-0.75,0.73-1.31,1.73-1.72,2.71c-0.95,2.29,0.01,3.85,2.45,4.17c2.57,0.34,4.8-0.51,6.89-1.94c6.51-4.45,11.4-10.36,15.54-16.98
	c3.16-5.05,5.79-10.43,9.39-15.22c8.19-10.89,22.09-10.94,30.4-0.14c3.54,4.59,6.08,9.79,9.11,14.7c4.94,8,10.83,15.05,19.29,19.59
	c1.33,0.71,2.51,0.77,3.76-0.02C135.24,130.65,136.52,130.01,136.32,128.28z"/>
</svg>
