<?xml version="1.0" encoding="utf-8"?>
<!-- Generator: Adobe Illustrator 27.0.0, SVG Export Plug-In . SVG Version: 6.00 Build 0)  -->
<svg version="1.1" id="圖層_1" xmlns="http://www.w3.org/2000/svg" xmlns:xlink="http://www.w3.org/1999/xlink" x="0px" y="0px"
	 viewBox="0 0 173.74 171.15" style="enable-background:new 0 0 173.74 171.15;" xml:space="preserve">
<g>
	<path d="M49.63,90.44c-0.19,0.14-0.31,0.22-0.43,0.32c-1.64,1.35-3.29,2.7-4.93,4.04c-5.12,4.2-10.25,8.4-15.37,12.6
		c-2.6,2.13-5.19,4.26-7.79,6.39c-1.62,1.33-3.43,2.27-5.47,2.76c-2.2,0.52-4.38,0.51-6.47-0.42c-2.59-1.15-4.12-3.15-4.5-5.98
		c-0.3-2.25,0.29-4.32,1.38-6.26c0.88-1.57,2.06-2.89,3.48-3.98c5.17-3.96,10.34-7.91,15.51-11.86
		c7.05-5.39,14.11-10.79,21.16-16.18c5.2-3.98,10.4-7.95,15.6-11.93c0.14-0.11,0.28-0.22,0.41-0.33c-0.01-0.03-0.02-0.06-0.02-0.09
		c-0.15-0.01-0.29-0.02-0.44-0.02c-2.5,0-5,0-7.51,0.01c-6.15,0.01-12.29,0.02-18.44,0.03c-0.76,0-1.53,0.02-2.29,0.02
		c-1.47-0.01-2.92-0.14-4.29-0.76c-1.33-0.6-2.41-1.47-3.1-2.77c-0.77-1.48-0.78-3.01-0.25-4.56c0.5-1.48,1.41-2.68,2.6-3.66
		c2.16-1.8,4.66-2.73,7.48-2.73c6.44-0.02,12.89-0.02,19.33-0.02c3.7,0,7.39-0.01,11.09-0.01c8.92-0.01,17.84-0.02,26.76-0.03
		c0.23,0,0.46,0,0.71,0c0-0.21-0.15-0.27-0.25-0.35c-1.19-0.98-2.39-1.95-3.59-2.92c-4.94-4.02-9.88-8.03-14.81-12.05
		c-0.66-0.53-1.26-1.13-1.66-1.89c-0.83-1.59-0.75-3.17,0.12-4.71c0.65-1.14,1.6-1.96,2.73-2.6c1.33-0.76,2.77-1.15,4.29-1.26
		c1.52-0.11,3,0.09,4.43,0.64c0.69,0.27,1.33,0.64,1.92,1.09c7.4,5.69,14.8,11.37,22.2,17.06c7.71,5.92,15.42,11.84,23.13,17.77
		c4.44,3.41,8.24,7.42,11.25,12.16c2.76,4.35,4.75,9.03,5.86,14.07c0.46,2.08,0.76,4.18,0.91,6.3c0.13,1.83,0.15,3.65,0.04,5.48
		c-0.23,3.89-1,7.68-2.27,11.36c-2.21,6.42-5.76,12.01-10.48,16.87c-5.89,6.06-12.92,10.29-20.92,12.94
		c-2.86,0.95-5.78,1.63-8.76,2.08c-1.59,0.24-3.18,0.43-4.79,0.5c-1.06,0.05-2.12,0.12-3.19,0.12c-1.94,0.01-3.89-0.09-5.82-0.27
		c-6.01-0.58-11.77-2.1-17.25-4.61c-5.71-2.61-10.78-6.13-15.16-10.63c-4.11-4.23-7.36-9.03-9.6-14.5
		c-1.15-2.79-2.01-5.66-2.45-8.65c-0.16-1.06-0.22-2.14-0.38-3.2c-0.18-1.22,0.04-2.43,0.12-3.63
		C49.49,91.62,49.57,91.08,49.63,90.44z M99.77,115.67c1.79-0.01,3.48-0.12,5.16-0.38c3.89-0.59,7.58-1.81,11.02-3.74
		c4.73-2.66,8.57-6.25,11.32-10.96c2.11-3.61,3.27-7.51,3.5-11.69c0.09-1.59,0.02-3.18-0.2-4.77c-0.28-2.14-0.81-4.22-1.63-6.22
		c-2.03-5-5.29-9.03-9.62-12.21c-5.19-3.81-11.04-5.79-17.44-6.19c-2.36-0.15-4.72-0.05-7.06,0.31c-2.4,0.37-4.74,0.97-7.01,1.85
		c-5.22,2.03-9.67,5.14-13.14,9.56c-4.44,5.66-6.37,12.09-5.63,19.27c0.32,3.09,1.21,6.02,2.63,8.78
		c2.87,5.59,7.18,9.75,12.71,12.67C89.23,114.5,94.41,115.65,99.77,115.67z"/>
	<path d="M99.92,104.14c-4.79-0.08-9.14-1.42-12.92-4.42c-3.02-2.39-5.14-5.41-6.18-9.15c-0.4-1.42-0.59-2.86-0.58-4.34
		c0-4.54,1.68-8.41,4.77-11.68c2.91-3.06,6.5-4.92,10.62-5.77c2.11-0.43,4.24-0.53,6.38-0.32c4.7,0.47,8.81,2.25,12.23,5.52
		c2.6,2.48,4.3,5.49,5.03,9.02c0.33,1.62,0.42,3.26,0.23,4.91c-0.55,4.89-2.89,8.77-6.69,11.81c-2.51,2.01-5.38,3.29-8.53,3.94
		c-1.13,0.23-2.27,0.38-3.43,0.41C100.54,104.09,100.23,104.12,99.92,104.14z"/>
</g>
</svg>
