<?xml version="1.0" encoding="UTF-8"?>
<svg id="_圖層_1" data-name="圖層 1" xmlns="http://www.w3.org/2000/svg" viewBox="0 0 173.91 173.91">
  <defs>
    <style>
      .cls-1 {
        fill: #fff;
      }

      .cls-2 {
        fill: #231815;
      }
    </style>
  </defs>
  <circle class="cls-1" cx="86.96" cy="86.96" r="86.96"/>
  <g>
    <path class="cls-2" d="M137.3,128.78c-2.31-4.66-3.47-8.49-3.47-11.5v-18.9c0-3.87-.72-7.25-2.15-10.15-1.43-2.9-3.65-5.85-6.66-8.86h-3.01v3.11c.86,1.08,1.67,2.62,2.42,4.62,.75,2.01,1.13,3.55,1.13,4.62v5.16c0,1.21-.47,3.47-1.4,6.76-.43,1.51-.64,3.55-.64,6.13,0,2.43-.15,5.08-.43,7.94-.29,2.87-.5,4.48-.65,4.84-1.57-1-4.15-2.76-7.73-5.27-3.3-1.93-6.52-2.9-9.67-2.9-5.65,0-11.13,1.76-16.43,5.27-6.8,4.51-11.46,7.19-13.96,8.05h-2.04v-17.82c-4.87,4-7.97,10.06-7.97,16.85,0-4.25-4.58-8.21-11.05-11.56v14.68c-.86,.57-2.34,1.04-4.45,1.4-2.12,.36-3.17,1.43-3.17,3.22,0,.93,.09,1.66,.27,2.2,.17,.54,.51,.81,1.02,.81,.28,0,.68-.2,1.18-.6,.14-.08,.32-.24,.53-.48h10.85c2.44-.35,4.93-.69,7.47-1.02,2.54-.32,6.21-.48,11.01-.48h38.56l17.94,2.58c1.57,0,2.66-.23,3.27-.7,.61-.47,.91-1.41,.91-2.85,0-1.21-.56-2.93-1.68-5.15ZM53.59,56.38v38.3c6.47-3.35,11.05-7.31,11.05-11.56,0,6.79,3.1,12.85,7.97,16.85V56.36c0-6.22,1.46-11.09,4.4-14.59,3.29-3.94,8.34-5.9,15.14-5.9,2.37,0,5.09,.56,8.17,1.68,2.57,.91,5.15,2,7.73,3.26,1,0,1.86-.34,2.58-1.01,.71-.67,1.07-1.33,1.07-1.97,0-1.98-2.33-3.86-6.98-5.63-1.5-.57-3.8-1.24-6.87-2.03h-13.43c-.72,0-3.58,.76-8.59,2.26-6.95,2.08-11.42,3.37-13.43,3.87-3.58,.93-8.38,2-14.39,3.22-4.51,.93-6.77,2.11-6.77,3.54,0,.58,2.06,1.8,6.18,3.66,4.11,1.86,6.17,5.08,6.17,9.66Z"/>
    <path class="cls-2" d="M15.75,104.92c7.8,0,25.98-4.09,37.84-10.24v20.49c-11.86-6.16-30.04-10.25-37.84-10.25Z"/>
    <path class="cls-2" d="M86.45,104.92c-5.25,0-10.07,1.86-13.84,4.96v-9.91c3.77,3.09,8.59,4.95,13.84,4.95Z"/>
  </g>
</svg>