<?xml version="1.0" encoding="UTF-8"?>
<svg id="_圖層_1" data-name="圖層 1" xmlns="http://www.w3.org/2000/svg" viewBox="0 0 75.57 113.78">
  <defs>
    <style>
      .cls-1 {
        fill: #231815;
      }
    </style>
  </defs>
  <path class="cls-1" d="M60.26,29.72c-.04-.24-.29-.36-.49-.47-.52-.21-1.07-.35-1.62-.47,1.18,.28,1.93,.6,2.1,.94Z"/>
  <path class="cls-1" d="M75.57,96.73c-.42-.91-2.68-1.55-5.51-2.01,3.16,.57,5.17,1.24,5.51,2.01Z"/>
  <path class="cls-1" d="M57.12,99.93c-5.46,.26-10.92,.36-16.39,.34,1.03-2.52,2.33-4.89,3.88-7.08,4.17,.03,8.35,.13,12.51,.33,1.94,.18,8.22,.44,12.94,1.2-5.67-1.02-15.04-1.71-25.12-2,6.51-8.92,17.03-14.72,28.92-14.72-12.58,0-23.65-23.61-30.02-45.87,8.59-.38,15.91-1.26,16.42-2.4-1.47,1.39-8.5,1.97-16.53,2.02-.38-1.35-.75-2.69-1.1-4.02,4.12,0,8.23,.13,12.32,.58,1.06,.14,2.15,.26,3.2,.49-3.07-.74-9.07-1.28-15.65-1.53-2.82-10.9-4.43-21.01-4.43-27.26,0,6.22-1.59,16.27-4.39,27.11-9.87,.04-18.64,.81-18.39,2.62-.19,1.73,7.72,2.51,16.96,2.61-6.39,22.2-17.42,45.67-29.97,45.67,11.83,0,22.31,5.74,28.82,14.58C14.66,92.72-.06,94.01,0,96.73c.01,2.99,17.52,4.23,35.68,4.15,1.55,4,2.41,8.35,2.41,12.9,0-4.57,.87-8.93,2.43-12.95,13.26-.23,26.06-1.14,31.86-2.57-.35,.08-.7,.15-1.05,.22-4.69,.85-9.45,1.17-14.2,1.46ZM16.85,29.73c3.19-1.06,6.66-1.13,10-1.44,2.21-.16,4.42-.28,6.64-.37-.31,1.19-.64,2.39-.98,3.6-7.18-.34-13.48-1-15.65-1.78Zm2.22,69.78c-4.73-.33-9.47-.69-14.12-1.58-1.25-.28-2.6-.49-3.67-1.18-.02,0-.02-.02-.03-.02,.01,0,.02-.02,.03-.02,1.06-.68,2.42-.89,3.67-1.17,4.65-.89,9.39-1.25,14.12-1.58,4.19-.28,8.39-.47,12.6-.6,1.48,2.13,2.74,4.43,3.74,6.86-5.45-.11-10.9-.34-16.34-.7Z"/>
  <path class="cls-1" d="M72.37,98.25c.81-.18,1.62-.4,2.38-.74,.33-.18,.75-.38,.82-.79-.21,.56-1.35,1.07-3.2,1.53Z"/>
</svg>